ply
format ascii 1.0
element vertex 384
property float x
property float y
property float z
property float nx
property float ny
property float nz
element face 128
property list uchar uint vertex_indices
end_header
-0.957340 0.538384 0.423402 -0.119563 -0.926854 -0.355873 
-0.692560 0.500921 0.432015 -0.119563 -0.926854 -0.355873 
-1.000000 0.511081 0.508844 -0.119563 -0.926854 -0.355873 
-0.692560 0.500921 0.432015 -0.027610 -0.999384 0.021677 
-0.731882 0.506631 0.645205 -0.027610 -0.999384 0.021677 
-1.000000 0.511081 0.508844 -0.027610 -0.999384 0.021677 
-0.692560 0.500921 0.432015 -0.037900 -0.999049 -0.021556 
-0.451931 0.492171 0.414480 -0.037900 -0.999049 -0.021556 
-0.496673 0.489276 0.627308 -0.037900 -0.999049 -0.021556 
-0.692560 0.500921 0.432015 -0.072572 -0.997274 0.013327 
-0.496673 0.489276 0.627308 -0.072572 -0.997274 0.013327 
-0.731882 0.506631 0.645205 -0.072572 -0.997274 0.013327 
-0.951989 0.432462 0.152160 0.090373 -0.983486 0.156807 
-0.661875 0.463179 0.177613 0.090373 -0.983486 0.156807 
-0.692560 0.500921 0.432015 0.090373 -0.983486 0.156807 
-0.951989 0.432462 0.152160 -0.142221 -0.922973 0.357622 
-0.692560 0.500921 0.432015 -0.142221 -0.922973 0.357622 
-0.957340 0.538384 0.423402 -0.142221 -0.922973 0.357622 
-0.661875 0.463179 0.177613 -0.034144 -0.987916 0.151182 
-0.387431 0.451541 0.163546 -0.034144 -0.987916 0.151182 
-0.451931 0.492171 0.414480 -0.034144 -0.987916 0.151182 
-0.661875 0.463179 0.177613 -0.025503 -0.989294 0.143692 
-0.451931 0.492171 0.414480 -0.025503 -0.989294 0.143692 
-0.692560 0.500921 0.432015 -0.025503 -0.989294 0.143692 
-0.451931 0.492171 0.414480 -0.119048 -0.989948 -0.076358 
-0.167587 0.459196 0.398667 -0.119048 -0.989948 -0.076358 
-0.177319 0.444037 0.610370 -0.119048 -0.989948 -0.076358 
-0.451931 0.492171 0.414480 -0.142380 -0.988861 -0.043382 
-0.177319 0.444037 0.610370 -0.142380 -0.988861 -0.043382 
-0.496673 0.489276 0.627308 -0.142380 -0.988861 -0.043382 
-0.167587 0.459196 0.398667 0.008151 -0.997440 -0.071048 
0.081850 0.461092 0.400662 0.008151 -0.997440 -0.071048 
-0.177319 0.444037 0.610370 0.008151 -0.997440 -0.071048 
0.081850 0.461092 0.400662 -0.073213 -0.982651 -0.170400 
0.090797 0.420201 0.632627 -0.073213 -0.982651 -0.170400 
-0.177319 0.444037 0.610370 -0.073213 -0.982651 -0.170400 
-0.387431 0.451541 0.163546 -0.115801 -0.983315 0.140293 
-0.140522 0.421129 0.154194 -0.115801 -0.983315 0.140293 
-0.167587 0.459196 0.398667 -0.115801 -0.983315 0.140293 
-0.387431 0.451541 0.163546 -0.106935 -0.985455 0.132073 
-0.167587 0.459196 0.398667 -0.106935 -0.985455 0.132073 
-0.451931 0.492171 0.414480 -0.106935 -0.985455 0.132073 
-0.140522 0.421129 0.154194 -0.086265 -0.968203 0.234820 
0.090083 0.399033 0.147805 -0.086265 -0.968203 0.234820 
0.081850 0.461092 0.400662 -0.086265 -0.968203 0.234820 
-0.140522 0.421129 0.154194 0.006275 -0.987968 0.154533 
0.081850 0.461092 0.400662 0.006275 -0.987968 0.154533 
-0.167587 0.459196 0.398667 0.006275 -0.987968 0.154533 
-0.974314 0.167079 0.015031 0.049412 -0.461774 0.885620 
-0.727235 0.222003 0.029884 0.049412 -0.461774 0.885620 
-0.951989 0.432462 0.152160 0.049412 -0.461774 0.885620 
-0.727235 0.222003 0.029884 -0.020140 -0.518255 0.854989 
-0.661875 0.463179 0.177613 -0.020140 -0.518255 0.854989 
-0.951989 0.432462 0.152160 -0.020140 -0.518255 0.854989 
-0.727235 0.222003 0.029884 0.003836 -0.523087 0.852271 
-0.431580 0.159981 -0.009513 0.003836 -0.523087 0.852271 
-0.661875 0.463179 0.177613 0.003836 -0.523087 0.852271 
-0.431580 0.159981 -0.009513 0.022246 -0.512782 0.858231 
-0.387431 0.451541 0.163546 0.022246 -0.512782 0.858231 
-0.661875 0.463179 0.177613 0.022246 -0.512782 0.858231 
-0.986036 -0.068333 0.019113 -0.067996 0.020682 0.997471 
-0.749856 -0.076661 0.035386 -0.067996 0.020682 0.997471 
-0.974314 0.167079 0.015031 -0.067996 0.020682 0.997471 
-0.749856 -0.076661 0.035386 -0.065151 0.023312 0.997603 
-0.727235 0.222003 0.029884 -0.065151 0.023312 0.997603 
-0.974314 0.167079 0.015031 -0.065151 0.023312 0.997603 
-0.749856 -0.076661 0.035386 0.035954 0.015684 0.999230 
-0.529937 -0.104682 0.027913 0.035954 0.015684 0.999230 
-0.727235 0.222003 0.029884 0.035954 0.015684 0.999230 
-0.529937 -0.104682 0.027913 0.148911 0.083987 0.985277 
-0.431580 0.159981 -0.009513 0.148911 0.083987 0.985277 
-0.727235 0.222003 0.029884 0.148911 0.083987 0.985277 
-0.431580 0.159981 -0.009513 0.079598 -0.517685 0.851860 
-0.189496 0.144398 -0.041604 0.079598 -0.517685 0.851860 
-0.387431 0.451541 0.163546 0.079598 -0.517685 0.851860 
-0.189496 0.144398 -0.041604 -0.039493 -0.572468 0.818976 
-0.140522 0.421129 0.154194 -0.039493 -0.572468 0.818976 
-0.387431 0.451541 0.163546 -0.039493 -0.572468 0.818976 
-0.189496 0.144398 -0.041604 -0.047137 -0.571371 0.819337 
0.037760 0.132374 -0.036914 -0.047137 -0.571371 0.819337 
-0.140522 0.421129 0.154194 -0.047137 -0.571371 0.819337 
0.037760 0.132374 -0.036914 -0.031293 -0.565002 0.824496 
0.090083 0.399033 0.147805 -0.031293 -0.565002 0.824496 
-0.140522 0.421129 0.154194 -0.031293 -0.565002 0.824496 
-0.529937 -0.104682 0.027913 0.067758 0.114963 0.991056 
-0.267931 -0.112338 0.010887 0.067758 0.114963 0.991056 
-0.431580 0.159981 -0.009513 0.067758 0.114963 0.991056 
-0.267931 -0.112338 0.010887 0.139714 0.157199 0.977634 
-0.189496 0.144398 -0.041604 0.139714 0.157199 0.977634 
-0.431580 0.159981 -0.009513 0.139714 0.157199 0.977634 
-0.267931 -0.112338 0.010887 0.204486 0.135730 0.969414 
0.015935 -0.174066 -0.040348 0.204486 0.135730 0.969414 
-0.189496 0.144398 -0.041604 0.204486 0.135730 0.969414 
0.015935 -0.174066 -0.040348 -0.021142 -0.009697 0.999729 
0.037760 0.132374 -0.036914 -0.021142 -0.009697 0.999729 
-0.189496 0.144398 -0.041604 -0.021142 -0.009697 0.999729 
0.081850 0.461092 0.400662 0.028392 -0.984231 -0.174597 
0.311424 0.470204 0.386631 0.028392 -0.984231 -0.174597 
0.090797 0.420201 0.632627 0.028392 -0.984231 -0.174597 
0.311424 0.470204 0.386631 0.078945 -0.988354 -0.130095 
0.332214 0.440176 0.627370 0.078945 -0.988354 -0.130095 
0.090797 0.420201 0.632627 0.078945 -0.988354 -0.130095 
0.311424 0.470204 0.386631 -0.049480 -0.991611 -0.119410 
0.552236 0.454619 0.416266 -0.049480 -0.991611 -0.119410 
0.332214 0.440176 0.627370 -0.049480 -0.991611 -0.119410 
0.552236 0.454619 0.416266 0.119667 -0.991182 0.056911 
0.534917 0.464067 0.617240 0.119667 -0.991182 0.056911 
0.332214 0.440176 0.627370 0.119667 -0.991182 0.056911 
0.090083 0.399033 0.147805 -0.144960 -0.903396 0.403562 
0.335545 0.373667 0.179194 -0.144960 -0.903396 0.403562 
0.311424 0.470204 0.386631 -0.144960 -0.903396 0.403562 
0.090083 0.399033 0.147805 0.053121 -0.969404 0.239653 
0.311424 0.470204 0.386631 0.053121 -0.969404 0.239653 
0.081850 0.461092 0.400662 0.053121 -0.969404 0.239653 
0.335545 0.373667 0.179194 0.119276 -0.967847 0.221462 
0.587217 0.406587 0.187512 0.119276 -0.967847 0.221462 
0.552236 0.454619 0.416266 0.119276 -0.967847 0.221462 
0.335545 0.373667 0.179194 -0.108965 -0.906019 0.408969 
0.552236 0.454619 0.416266 -0.108965 -0.906019 0.408969 
0.311424 0.470204 0.386631 -0.108965 -0.906019 0.408969 
0.552236 0.454619 0.416266 0.058806 -0.991033 0.119979 
0.778205 0.468947 0.423858 0.058806 -0.991033 0.119979 
0.757703 0.492600 0.629289 0.058806 -0.991033 0.119979 
0.552236 0.454619 0.416266 0.123781 -0.990657 0.057241 
0.757703 0.492600 0.629289 0.123781 -0.990657 0.057241 
0.534917 0.464067 0.617240 0.123781 -0.990657 0.057241 
1.000000 0.511080 0.508844 0.137985 -0.982275 0.126873 
0.757703 0.492600 0.629289 0.137985 -0.982275 0.126873 
0.778205 0.468947 0.423858 0.137985 -0.982275 0.126873 
1.000000 0.511080 0.508844 0.070440 -0.954603 0.289433 
0.778205 0.468947 0.423858 0.070440 -0.954603 0.289433 
1.043835 0.485075 0.412406 0.070440 -0.954603 0.289433 
0.587217 0.406587 0.187512 -0.092887 -0.941653 0.323516 
0.838968 0.375520 0.169368 -0.092887 -0.941653 0.323516 
0.778205 0.468947 0.423858 -0.092887 -0.941653 0.323516 
0.587217 0.406587 0.187512 0.054688 -0.975480 0.213187 
0.778205 0.468947 0.423858 0.054688 -0.975480 0.213187 
0.552236 0.454619 0.416266 0.054688 -0.975480 0.213187 
0.838968 0.375520 0.169368 -0.024236 -0.903577 0.427739 
1.068125 0.375077 0.181418 -0.024236 -0.903577 0.427739 
1.043835 0.485075 0.412406 -0.024236 -0.903577 0.427739 
0.838968 0.375520 0.169368 0.071976 -0.930624 0.358830 
1.043835 0.485075 0.412406 0.071976 -0.930624 0.358830 
0.778205 0.468947 0.423858 0.071976 -0.930624 0.358830 
0.037760 0.132374 -0.036914 -0.205151 -0.529806 0.822933 
0.325001 0.112661 0.022001 -0.205151 -0.529806 0.822933 
0.090083 0.399033 0.147805 -0.205151 -0.529806 0.822933 
0.325001 0.112661 0.022001 -0.160614 -0.504447 0.848372 
0.335545 0.373667 0.179194 -0.160614 -0.504447 0.848372 
0.090083 0.399033 0.147805 -0.160614 -0.504447 0.848372 
0.325001 0.112661 0.022001 -0.088688 -0.511250 0.854844 
0.594692 0.118050 0.053205 -0.088688 -0.511250 0.854844 
0.335545 0.373667 0.179194 -0.088688 -0.511250 0.854844 
0.594692 0.118050 0.053205 0.025148 -0.421331 0.906558 
0.587217 0.406587 0.187512 0.025148 -0.421331 0.906558 
0.335545 0.373667 0.179194 0.025148 -0.421331 0.906558 
0.015935 -0.174066 -0.040348 -0.091885 -0.004614 0.995759 
0.271468 -0.155617 -0.016683 -0.091885 -0.004614 0.995759 
0.037760 0.132374 -0.036914 -0.091885 -0.004614 0.995759 
0.271468 -0.155617 -0.016683 -0.206462 -0.099164 0.973417 
0.325001 0.112661 0.022001 -0.206462 -0.099164 0.973417 
0.037760 0.132374 -0.036914 -0.206462 -0.099164 0.973417 
0.271468 -0.155617 -0.016683 -0.168133 -0.107741 0.979859 
0.552548 -0.130756 0.034281 -0.168133 -0.107741 0.979859 
0.325001 0.112661 0.022001 -0.168133 -0.107741 0.979859 
0.552548 -0.130756 0.034281 -0.113643 -0.056194 0.991931 
0.594692 0.118050 0.053205 -0.113643 -0.056194 0.991931 
0.325001 0.112661 0.022001 -0.113643 -0.056194 0.991931 
0.594692 0.118050 0.053205 -0.020175 -0.395204 0.918372 
0.828339 0.106425 0.053335 -0.020175 -0.395204 0.918372 
0.838968 0.375520 0.169368 -0.020175 -0.395204 0.918372 
0.594692 0.118050 0.053205 0.013305 -0.421680 0.906647 
0.838968 0.375520 0.169368 0.013305 -0.421680 0.906647 
0.587217 0.406587 0.187512 0.013305 -0.421680 0.906647 
0.828339 0.106425 0.053335 0.039912 -0.396970 0.916963 
1.031293 0.118064 0.049540 0.039912 -0.396970 0.916963 
0.838968 0.375520 0.169368 0.039912 -0.396970 0.916963 
1.031293 0.118064 0.049540 -0.047746 -0.450581 0.891458 
1.068125 0.375077 0.181418 -0.047746 -0.450581 0.891458 
0.838968 0.375520 0.169368 -0.047746 -0.450581 0.891458 
0.552548 -0.130756 0.034281 -0.092718 -0.059888 0.993890 
0.797690 -0.132377 0.057052 -0.092718 -0.059888 0.993890 
0.594692 0.118050 0.053205 -0.092718 -0.059888 0.993890 
0.797690 -0.132377 0.057052 0.000216 0.015537 0.999879 
0.828339 0.106425 0.053335 0.000216 0.015537 0.999879 
0.594692 0.118050 0.053205 0.000216 0.015537 0.999879 
0.797690 -0.132377 0.057052 -0.045684 0.021410 0.998726 
1.042209 -0.119919 0.067970 -0.045684 0.021410 0.998726 
0.828339 0.106425 0.053335 -0.045684 0.021410 0.998726 
1.042209 -0.119919 0.067970 0.014175 0.077850 0.996864 
1.031293 0.118064 0.049540 0.014175 0.077850 0.996864 
0.828339 0.106425 0.053335 0.014175 0.077850 0.996864 
-0.955971 -0.311088 0.039112 0.010207 0.006917 0.999924 
-0.743654 -0.326231 0.037049 0.010207 0.006917 0.999924 
-0.749856 -0.076661 0.035386 0.010207 0.006917 0.999924 
-0.955971 -0.311088 0.039112 -0.065958 0.073807 0.995089 
-0.749856 -0.076661 0.035386 -0.065958 0.073807 0.995089 
-0.986036 -0.068333 0.019113 -0.065958 0.073807 0.995089 
-0.743654 -0.326231 0.037049 -0.039910 0.079575 0.996030 
-0.488376 -0.323858 0.047088 -0.039910 0.079575 0.996030 
-0.529937 -0.104682 0.027913 -0.039910 0.079575 0.996030 
-0.743654 -0.326231 0.037049 0.034920 0.007528 0.999362 
-0.529937 -0.104682 0.027913 0.034920 0.007528 0.999362 
-0.749856 -0.076661 0.035386 0.034920 0.007528 0.999362 
-0.975395 -0.582760 0.030404 -0.092854 -0.025263 0.995359 
-0.739981 -0.563396 0.052857 -0.092854 -0.025263 0.995359 
-0.955971 -0.311088 0.039112 -0.092854 -0.025263 0.995359 
-0.739981 -0.563396 0.052857 0.014450 0.066721 0.997667 
-0.743654 -0.326231 0.037049 0.014450 0.066721 0.997667 
-0.955971 -0.311088 0.039112 0.014450 0.066721 0.997667 
-0.739981 -0.563396 0.052857 0.071041 0.067433 0.995191 
-0.489630 -0.552619 0.034256 0.071041 0.067433 0.995191 
-0.743654 -0.326231 0.037049 0.071041 0.067433 0.995191 
-0.489630 -0.552619 0.034256 -0.038718 -0.055755 0.997694 
-0.488376 -0.323858 0.047088 -0.038718 -0.055755 0.997694 
-0.743654 -0.326231 0.037049 -0.038718 -0.055755 0.997694 
-0.488376 -0.323858 0.047088 0.039681 0.128242 0.990949 
-0.243584 -0.342800 0.039737 0.039681 0.128242 0.990949 
-0.267931 -0.112338 0.010887 0.039681 0.128242 0.990949 
-0.488376 -0.323858 0.047088 0.067420 0.099639 0.992737 
-0.267931 -0.112338 0.010887 0.067420 0.099639 0.992737 
-0.529937 -0.104682 0.027913 0.067420 0.099639 0.992737 
-0.243584 -0.342800 0.039737 0.238163 0.092566 0.966804 
0.013959 -0.411088 -0.017168 0.238163 0.092566 0.966804 
0.015935 -0.174066 -0.040348 0.238163 0.092566 0.966804 
-0.243584 -0.342800 0.039737 0.205815 0.142933 0.968096 
0.015935 -0.174066 -0.040348 0.205815 0.142933 0.968096 
-0.267931 -0.112338 0.010887 0.205815 0.142933 0.968096 
-0.489630 -0.552619 0.034256 -0.024415 0.002512 0.999699 
-0.245584 -0.556111 0.040225 -0.024415 0.002512 0.999699 
-0.243584 -0.342800 0.039737 -0.024415 0.002512 0.999699 
-0.489630 -0.552619 0.034256 0.025629 -0.056130 0.998094 
-0.243584 -0.342800 0.039737 0.025629 -0.056130 0.998094 
-0.488376 -0.323858 0.047088 0.025629 -0.056130 0.998094 
-0.245584 -0.556111 0.040225 0.148025 0.123411 0.981253 
0.048422 -0.612827 0.003006 0.148025 0.123411 0.981253 
0.013959 -0.411088 -0.017168 0.148025 0.123411 0.981253 
-0.245584 -0.556111 0.040225 0.215802 0.000207 0.976437 
0.013959 -0.411088 -0.017168 0.215802 0.000207 0.976437 
-0.243584 -0.342800 0.039737 0.215802 0.000207 0.976437 
-1.004455 -0.849407 0.017297 -0.096204 -0.038408 0.994620 
-0.737264 -0.803298 0.044921 -0.096204 -0.038408 0.994620 
-0.975395 -0.582760 0.030404 -0.096204 -0.038408 0.994620 
-0.737264 -0.803298 0.044921 -0.092120 -0.033962 0.995169 
-0.739981 -0.563396 0.052857 -0.092120 -0.033962 0.995169 
-0.975395 -0.582760 0.030404 -0.092120 -0.033962 0.995169 
-0.737264 -0.803298 0.044921 0.002671 -0.033030 0.999451 
-0.492950 -0.760516 0.045682 0.002671 -0.033030 0.999451 
-0.739981 -0.563396 0.052857 0.002671 -0.033030 0.999451 
-0.492950 -0.760516 0.045682 0.071696 0.053598 0.995985 
-0.489630 -0.552619 0.034256 0.071696 0.053598 0.995985 
-0.739981 -0.563396 0.052857 0.071696 0.053598 0.995985 
-1.000000 -1.076894 0.043939 -0.026082 0.115778 0.992933 
-0.714589 -1.031472 0.046140 -0.026082 0.115778 0.992933 
-1.004455 -0.849407 0.017297 -0.026082 0.115778 0.992933 
-0.714589 -1.031472 0.046140 -0.102015 -0.004824 0.994771 
-0.737264 -0.803298 0.044921 -0.102015 -0.004824 0.994771 
-1.004455 -0.849407 0.017297 -0.102015 -0.004824 0.994771 
-0.714589 -1.031472 0.046140 0.082426 0.013514 0.996505 
-0.480789 -0.982156 0.026132 0.082426 0.013514 0.996505 
-0.737264 -0.803298 0.044921 0.082426 0.013514 0.996505 
-0.480789 -0.982156 0.026132 0.012166 -0.087195 0.996117 
-0.492950 -0.760516 0.045682 0.012166 -0.087195 0.996117 
-0.737264 -0.803298 0.044921 0.012166 -0.087195 0.996117 
-0.492950 -0.760516 0.045682 -0.096238 0.142767 0.985066 
-0.243742 -0.785244 0.073613 -0.096238 0.142767 0.985066 
-0.245584 -0.556111 0.040225 -0.096238 0.142767 0.985066 
-0.492950 -0.760516 0.045682 -0.023624 0.055241 0.998194 
-0.245584 -0.556111 0.040225 -0.023624 0.055241 0.998194 
-0.489630 -0.552619 0.034256 -0.023624 0.055241 0.998194 
-0.243742 -0.785244 0.073613 0.072411 0.270436 0.960011 
0.027097 -0.807423 0.059432 0.072411 0.270436 0.960011 
0.048422 -0.612827 0.003006 0.072411 0.270436 0.960011 
-0.243742 -0.785244 0.073613 0.151525 0.143722 0.977949 
0.048422 -0.612827 0.003006 0.151525 0.143722 0.977949 
-0.245584 -0.556111 0.040225 0.151525 0.143722 0.977949 
-0.480789 -0.982156 0.026132 -0.090258 -0.129451 0.987469 
-0.205317 -0.995329 0.049584 -0.090258 -0.129451 0.987469 
-0.243742 -0.785244 0.073613 -0.090258 -0.129451 0.987469 
-0.480789 -0.982156 0.026132 -0.120074 -0.093764 0.988327 
-0.243742 -0.785244 0.073613 -0.120074 -0.093764 0.988327 
-0.492950 -0.760516 0.045682 -0.120074 -0.093764 0.988327 
-0.205317 -0.995329 0.049584 -0.211606 0.211724 0.954147 
0.042557 -0.978641 0.100854 -0.211606 0.211724 0.954147 
0.027097 -0.807423 0.059432 -0.211606 0.211724 0.954147 
-0.205317 -0.995329 0.049584 0.043361 -0.105697 0.993453 
0.027097 -0.807423 0.059432 0.043361 -0.105697 0.993453 
-0.243742 -0.785244 0.073613 0.043361 -0.105697 0.993453 
0.013959 -0.411088 -0.017168 -0.084674 0.083465 0.992907 
0.279801 -0.422729 0.006482 -0.084674 0.083465 0.992907 
0.271468 -0.155617 -0.016683 -0.084674 0.083465 0.992907 
0.013959 -0.411088 -0.017168 -0.098765 0.097674 0.990306 
0.271468 -0.155617 -0.016683 -0.098765 0.097674 0.990306 
0.015935 -0.174066 -0.040348 -0.098765 0.097674 0.990306 
0.279801 -0.422729 0.006482 -0.123811 0.081899 0.988920 
0.552377 -0.389388 0.037847 -0.123811 0.081899 0.988920 
0.271468 -0.155617 -0.016683 -0.123811 0.081899 0.988920 
0.552377 -0.389388 0.037847 -0.179560 0.013680 0.983652 
0.552548 -0.130756 0.034281 -0.179560 0.013680 0.983652 
0.271468 -0.155617 -0.016683 -0.179560 0.013680 0.983652 
0.048422 -0.612827 0.003006 -0.127312 0.136998 0.982356 
0.301204 -0.642449 0.039897 -0.127312 0.136998 0.982356 
0.279801 -0.422729 0.006482 -0.127312 0.136998 0.982356 
0.048422 -0.612827 0.003006 -0.084605 0.084825 0.992797 
0.279801 -0.422729 0.006482 -0.084605 0.084825 0.992797 
0.013959 -0.411088 -0.017168 -0.084605 0.084825 0.992797 
0.301204 -0.642449 0.039897 -0.045826 0.145831 0.988248 
0.557884 -0.626495 0.049445 -0.045826 0.145831 0.988248 
0.279801 -0.422729 0.006482 -0.045826 0.145831 0.988248 
0.557884 -0.626495 0.049445 -0.119714 0.045734 0.991754 
0.552377 -0.389388 0.037847 -0.119714 0.045734 0.991754 
0.279801 -0.422729 0.006482 -0.119714 0.045734 0.991754 
0.552377 -0.389388 0.037847 0.026661 0.013763 0.999550 
0.781749 -0.394395 0.031797 0.026661 0.013763 0.999550 
0.552548 -0.130756 0.034281 0.026661 0.013763 0.999550 
0.781749 -0.394395 0.031797 -0.092706 -0.089938 0.991623 
0.797690 -0.132377 0.057052 -0.092706 -0.089938 0.991623 
0.552548 -0.130756 0.034281 -0.092706 -0.089938 0.991623 
0.781749 -0.394395 0.031797 -0.011101 -0.095266 0.995390 
1.026155 -0.382362 0.035675 -0.011101 -0.095266 0.995390 
0.797690 -0.132377 0.057052 -0.011101 -0.095266 0.995390 
1.026155 -0.382362 0.035675 -0.038195 -0.119744 0.992070 
1.042209 -0.119919 0.067970 -0.038195 -0.119744 0.992070 
0.797690 -0.132377 0.057052 -0.038195 -0.119744 0.992070 
0.557884 -0.626495 0.049445 0.063828 0.050238 0.996696 
0.777507 -0.604389 0.034267 0.063828 0.050238 0.996696 
0.552377 -0.389388 0.037847 0.063828 0.050238 0.996696 
0.777507 -0.604389 0.034267 0.026607 0.011216 0.999583 
0.781749 -0.394395 0.031797 0.026607 0.011216 0.999583 
0.552377 -0.389388 0.037847 0.026607 0.011216 0.999583 
0.777507 -0.604389 0.034267 0.019264 -0.027912 0.999425 
1.039910 -0.614803 0.028918 0.019264 -0.027912 0.999425 
1.026155 -0.382362 0.035675 0.019264 -0.027912 0.999425 
0.777507 -0.604389 0.034267 -0.016456 0.012088 0.999792 
1.026155 -0.382362 0.035675 -0.016456 0.012088 0.999792 
0.781749 -0.394395 0.031797 -0.016456 0.012088 0.999792 
0.027097 -0.807423 0.059432 -0.045125 0.191084 0.980536 
0.288677 -0.830664 0.075999 -0.045125 0.191084 0.980536 
0.301204 -0.642449 0.039897 -0.045125 0.191084 0.980536 
0.027097 -0.807423 0.059432 -0.105232 0.287569 0.951961 
0.301204 -0.642449 0.039897 -0.105232 0.287569 0.951961 
0.048422 -0.612827 0.003006 -0.105232 0.287569 0.951961 
0.288677 -0.830664 0.075999 0.113453 0.179875 0.977125 
0.513576 -0.815476 0.047091 0.113453 0.179875 0.977125 
0.301204 -0.642449 0.039897 0.113453 0.179875 0.977125 
0.513576 -0.815476 0.047091 -0.036937 -0.003791 0.999310 
0.557884 -0.626495 0.049445 -0.036937 -0.003791 0.999310 
0.301204 -0.642449 0.039897 -0.036937 -0.003791 0.999310 
0.042557 -0.978641 0.100854 0.173058 -0.123716 0.977111 
0.258790 -0.980515 0.062319 0.173058 -0.123716 0.977111 
0.288677 -0.830664 0.075999 0.173058 -0.123716 0.977111 
0.042557 -0.978641 0.100854 -0.040998 0.231444 0.971984 
0.288677 -0.830664 0.075999 -0.040998 0.231444 0.971984 
0.027097 -0.807423 0.059432 -0.040998 0.231444 0.971984 
0.258790 -0.980515 0.062319 0.143823 -0.118377 0.982498 
0.486476 -0.993280 0.027452 0.143823 -0.118377 0.982498 
0.288677 -0.830664 0.075999 0.143823 -0.118377 0.982498 
0.486476 -0.993280 0.027452 0.134996 -0.129085 0.982402 
0.513576 -0.815476 0.047091 0.134996 -0.129085 0.982402 
0.288677 -0.830664 0.075999 0.134996 -0.129085 0.982402 
0.513576 -0.815476 0.047091 -0.068387 0.003604 0.997652 
0.754525 -0.809028 0.063584 -0.068387 0.003604 0.997652 
0.557884 -0.626495 0.049445 -0.068387 0.003604 0.997652 
0.754525 -0.809028 0.063584 0.054723 0.135579 0.989254 
0.777507 -0.604389 0.034267 0.054723 0.135579 0.989254 
0.557884 -0.626495 0.049445 0.054723 0.135579 0.989254 
0.754525 -0.809028 0.063584 0.088739 0.047192 0.994936 
1.042081 -0.842035 0.039502 0.088739 0.047192 0.994936 
1.039910 -0.614803 0.028918 0.088739 0.047192 0.994936 
0.754525 -0.809028 0.063584 0.025693 0.138942 0.989967 
1.039910 -0.614803 0.028918 0.025693 0.138942 0.989967 
0.777507 -0.604389 0.034267 0.025693 0.138942 0.989967 
0.486476 -0.993280 0.027452 0.020049 -0.112782 0.993418 
0.738081 -1.048512 0.016103 0.020049 -0.112782 0.993418 
0.513576 -0.815476 0.047091 0.020049 -0.112782 0.993418 
0.738081 -1.048512 0.016103 -0.061986 -0.190006 0.979824 
0.754525 -0.809028 0.063584 -0.061986 -0.190006 0.979824 
0.513576 -0.815476 0.047091 -0.061986 -0.190006 0.979824 
0.738081 -1.048512 0.016103 -0.123643 -0.184809 0.974966 
1.000000 -1.076894 0.043939 -0.123643 -0.184809 0.974966 
0.754525 -0.809028 0.063584 -0.123643 -0.184809 0.974966 
1.000000 -1.076894 0.043939 0.083886 0.003795 0.996468 
1.042081 -0.842035 0.039502 0.083886 0.003795 0.996468 
0.754525 -0.809028 0.063584 0.083886 0.003795 0.996468 
3 0 1 2 
3 3 4 5 
3 6 7 8 
3 9 10 11 
3 12 13 14 
3 15 16 17 
3 18 19 20 
3 21 22 23 
3 24 25 26 
3 27 28 29 
3 30 31 32 
3 33 34 35 
3 36 37 38 
3 39 40 41 
3 42 43 44 
3 45 46 47 
3 48 49 50 
3 51 52 53 
3 54 55 56 
3 57 58 59 
3 60 61 62 
3 63 64 65 
3 66 67 68 
3 69 70 71 
3 72 73 74 
3 75 76 77 
3 78 79 80 
3 81 82 83 
3 84 85 86 
3 87 88 89 
3 90 91 92 
3 93 94 95 
3 96 97 98 
3 99 100 101 
3 102 103 104 
3 105 106 107 
3 108 109 110 
3 111 112 113 
3 114 115 116 
3 117 118 119 
3 120 121 122 
3 123 124 125 
3 126 127 128 
3 129 130 131 
3 132 133 134 
3 135 136 137 
3 138 139 140 
3 141 142 143 
3 144 145 146 
3 147 148 149 
3 150 151 152 
3 153 154 155 
3 156 157 158 
3 159 160 161 
3 162 163 164 
3 165 166 167 
3 168 169 170 
3 171 172 173 
3 174 175 176 
3 177 178 179 
3 180 181 182 
3 183 184 185 
3 186 187 188 
3 189 190 191 
3 192 193 194 
3 195 196 197 
3 198 199 200 
3 201 202 203 
3 204 205 206 
3 207 208 209 
3 210 211 212 
3 213 214 215 
3 216 217 218 
3 219 220 221 
3 222 223 224 
3 225 226 227 
3 228 229 230 
3 231 232 233 
3 234 235 236 
3 237 238 239 
3 240 241 242 
3 243 244 245 
3 246 247 248 
3 249 250 251 
3 252 253 254 
3 255 256 257 
3 258 259 260 
3 261 262 263 
3 264 265 266 
3 267 268 269 
3 270 271 272 
3 273 274 275 
3 276 277 278 
3 279 280 281 
3 282 283 284 
3 285 286 287 
3 288 289 290 
3 291 292 293 
3 294 295 296 
3 297 298 299 
3 300 301 302 
3 303 304 305 
3 306 307 308 
3 309 310 311 
3 312 313 314 
3 315 316 317 
3 318 319 320 
3 321 322 323 
3 324 325 326 
3 327 328 329 
3 330 331 332 
3 333 334 335 
3 336 337 338 
3 339 340 341 
3 342 343 344 
3 345 346 347 
3 348 349 350 
3 351 352 353 
3 354 355 356 
3 357 358 359 
3 360 361 362 
3 363 364 365 
3 366 367 368 
3 369 370 371 
3 372 373 374 
3 375 376 377 
3 378 379 380 
3 381 382 383 
