ply
format ascii 1.0
element vertex 384
property float x
property float y
property float z
property float nx
property float ny
property float nz
element face 128
property list uchar uint vertex_indices
end_header
-0.957340 -0.551598 0.430470 -0.119563 0.473502 -0.872640 
-0.692560 -0.555260 0.392205 -0.119563 0.473502 -0.872640 
-1.000000 -0.632758 0.392277 -0.119563 0.473502 -0.872640 
-0.692560 -0.555260 0.392205 -0.027610 0.108606 -0.993701 
-0.731882 -0.767380 0.370114 -0.027610 0.108606 -0.993701 
-1.000000 -0.632758 0.392277 -0.027610 0.108606 -0.993701 
-0.692560 -0.555260 0.392205 -0.037900 0.151428 -0.987742 
-0.451931 -0.536735 0.385812 -0.037900 0.151428 -0.987742 
-0.496673 -0.747376 0.355236 -0.037900 0.151428 -0.987742 
-0.692560 -0.555260 0.392205 -0.072572 0.116610 -0.990523 
-0.496673 -0.747376 0.355236 -0.072572 0.116610 -0.990523 
-0.731882 -0.767380 0.370114 -0.072572 0.116610 -0.990523 
-0.951989 -0.268875 0.360760 0.090373 -0.027443 -0.995530 
-0.661875 -0.298110 0.387902 0.090373 -0.027443 -0.995530 
-0.692560 -0.555260 0.392205 0.090373 -0.027443 -0.995530 
-0.951989 -0.268875 0.360760 -0.142221 -0.234427 -0.961674 
-0.692560 -0.555260 0.392205 -0.142221 -0.234427 -0.961674 
-0.957340 -0.551598 0.430470 -0.142221 -0.234427 -0.961674 
-0.661875 -0.298110 0.387902 -0.034144 -0.021289 -0.999190 
-0.387431 -0.282647 0.378194 -0.034144 -0.021289 -0.999190 
-0.451931 -0.536735 0.385812 -0.034144 -0.021289 -0.999190 
-0.661875 -0.298110 0.387902 -0.025503 -0.013684 -0.999581 
-0.451931 -0.536735 0.385812 -0.025503 -0.013684 -0.999581 
-0.692560 -0.555260 0.392205 -0.025503 -0.013684 -0.999581 
-0.451931 -0.536735 0.385812 -0.119048 0.204579 -0.971584 
-0.167587 -0.516765 0.355176 -0.119048 0.204579 -0.971584 
-0.177319 -0.724693 0.312587 -0.119048 0.204579 -0.971584 
-0.451931 -0.536735 0.385812 -0.142380 0.171742 -0.974799 
-0.177319 -0.724693 0.312587 -0.142380 0.171742 -0.974799 
-0.496673 -0.747376 0.355236 -0.142380 0.171742 -0.974799 
-0.167587 -0.516765 0.355176 0.008151 0.200289 -0.979703 
0.081850 -0.518990 0.356797 0.008151 0.200289 -0.979703 
-0.177319 -0.724693 0.312587 0.008151 0.200289 -0.979703 
0.081850 -0.518990 0.356797 -0.073213 0.296870 -0.952107 
0.090797 -0.743658 0.286057 -0.073213 0.296870 -0.952107 
-0.177319 -0.724693 0.312587 -0.073213 0.296870 -0.952107 
-0.387431 -0.282647 0.378194 -0.115802 -0.011093 -0.993210 
-0.140522 -0.269417 0.349258 -0.115802 -0.011093 -0.993210 
-0.167587 -0.516765 0.355176 -0.115802 -0.011093 -0.993210 
-0.387431 -0.282647 0.378194 -0.106936 -0.002664 -0.994262 
-0.167587 -0.516765 0.355176 -0.106936 -0.002664 -0.994262 
-0.451931 -0.536735 0.385812 -0.106936 -0.002664 -0.994262 
-0.140522 -0.269417 0.349258 -0.086264 -0.106782 -0.990533 
0.090083 -0.260205 0.328182 -0.086264 -0.106782 -0.990533 
0.081850 -0.518990 0.356797 -0.086264 -0.106782 -0.990533 
-0.140522 -0.269417 0.349258 0.006275 -0.024605 -0.999678 
0.081850 -0.518990 0.356797 0.006275 -0.024605 -0.999678 
-0.167587 -0.516765 0.355176 0.006275 -0.024605 -0.999678 
-0.974314 -0.085866 0.210443 0.182088 -0.610740 -0.770611 
-0.727235 -0.030942 0.225295 0.182088 -0.610740 -0.770611 
-0.951989 -0.268875 0.360760 0.182088 -0.610740 -0.770611 
-0.727235 -0.030942 0.225295 0.028312 -0.514634 -0.856943 
-0.661875 -0.298110 0.387902 0.028312 -0.514634 -0.856943 
-0.951989 -0.268875 0.360760 0.028312 -0.514634 -0.856943 
-0.727235 -0.030942 0.225295 -0.222180 -0.545997 -0.807789 
-0.431580 -0.092964 0.185898 -0.222180 -0.545997 -0.807789 
-0.661875 -0.298110 0.387902 -0.222180 -0.545997 -0.807789 
-0.431580 -0.092964 0.185898 0.015109 -0.710109 -0.703930 
-0.387431 -0.282647 0.378194 0.015109 -0.710109 -0.703930 
-0.661875 -0.298110 0.387902 0.015109 -0.710109 -0.703930 
-0.986036 -0.101441 0.076132 -0.043164 -0.991979 0.118801 
-0.749856 -0.109769 0.092405 -0.043164 -0.991979 0.118801 
-0.974314 -0.085866 0.210443 -0.043164 -0.991979 0.118801 
-0.749856 -0.109769 0.092405 0.162269 -0.860547 0.482833 
-0.727235 -0.030942 0.225295 0.162269 -0.860547 0.482833 
-0.974314 -0.085866 0.210443 0.162269 -0.860547 0.482833 
-0.749856 -0.109769 0.092405 -0.090613 -0.849689 0.519440 
-0.529937 -0.137790 0.084932 -0.090613 -0.849689 0.519440 
-0.727235 -0.030942 0.225295 -0.090613 -0.849689 0.519440 
-0.529937 -0.137790 0.084932 -0.114862 -0.861600 0.494421 
-0.431580 -0.092964 0.185898 -0.114862 -0.861600 0.494421 
-0.727235 -0.030942 0.225295 -0.114862 -0.861600 0.494421 
-0.431580 -0.092964 0.185898 -0.136486 -0.720752 -0.679624 
-0.189496 -0.108547 0.153808 -0.136486 -0.720752 -0.679624 
-0.387431 -0.282647 0.378194 -0.136486 -0.720752 -0.679624 
-0.189496 -0.108547 0.153808 -0.032305 -0.775658 -0.630326 
-0.140522 -0.269417 0.349258 -0.032305 -0.775658 -0.630326 
-0.387431 -0.282647 0.378194 -0.032305 -0.775658 -0.630326 
-0.189496 -0.108547 0.153808 -0.027995 -0.775233 -0.631055 
0.037760 -0.120571 0.158497 -0.027995 -0.775233 -0.631055 
-0.140522 -0.269417 0.349258 -0.027995 -0.775233 -0.631055 
0.037760 -0.120571 0.158497 -0.026613 -0.775905 -0.630288 
0.090083 -0.260205 0.328182 -0.026613 -0.775905 -0.630288 
-0.140522 -0.269417 0.349258 -0.026613 -0.775905 -0.630288 
-0.529937 -0.137790 0.084932 -0.000319 -0.913856 0.406038 
-0.267931 -0.145446 0.067906 -0.000319 -0.913856 0.406038 
-0.431580 -0.092964 0.185898 -0.000319 -0.913856 0.406038 
-0.267931 -0.145446 0.067906 -0.006076 -0.916777 0.399353 
-0.189496 -0.108547 0.153808 -0.006076 -0.916777 0.399353 
-0.431580 -0.092964 0.185898 -0.006076 -0.916777 0.399353 
-0.267931 -0.145446 0.067906 -0.105147 -0.875306 0.471999 
0.015935 -0.207174 0.016671 -0.105147 -0.875306 0.471999 
-0.189496 -0.108547 0.153808 -0.105147 -0.875306 0.471999 
0.015935 -0.207174 0.016671 -0.055749 -0.848299 0.526574 
0.037760 -0.120571 0.158497 -0.055749 -0.848299 0.526574 
-0.189496 -0.108547 0.153808 -0.055749 -0.848299 0.526574 
0.081850 -0.518990 0.356797 0.028391 0.301237 -0.953126 
0.311424 -0.506264 0.367657 0.028391 0.301237 -0.953126 
0.090797 -0.743658 0.286057 0.028391 0.301237 -0.953126 
0.311424 -0.506264 0.367657 0.078945 0.257651 -0.963008 
0.332214 -0.741045 0.306546 0.078945 0.257651 -0.963008 
0.090797 -0.743658 0.286057 0.078945 0.257651 -0.963008 
0.311424 -0.506264 0.367657 -0.049480 0.247481 -0.967628 
0.552236 -0.533618 0.348347 -0.049480 0.247481 -0.967628 
0.332214 -0.741045 0.306546 -0.049480 0.247481 -0.967628 
0.552236 -0.533618 0.348347 0.119667 0.072604 -0.990156 
0.534917 -0.734112 0.331553 0.119667 0.072604 -0.990156 
0.332214 -0.741045 0.306546 0.119667 0.072604 -0.990156 
0.090083 -0.260205 0.328182 -0.144961 -0.282525 -0.948244 
0.335545 -0.288025 0.298946 -0.144961 -0.282525 -0.948244 
0.311424 -0.506264 0.367657 -0.144961 -0.282525 -0.948244 
0.090083 -0.260205 0.328182 0.053121 -0.111418 -0.992353 
0.311424 -0.506264 0.367657 0.053121 -0.111418 -0.992353 
0.081850 -0.518990 0.356797 0.053121 -0.111418 -0.992353 
0.335545 -0.288025 0.298946 0.119276 -0.093584 -0.988441 
0.587217 -0.300558 0.330503 0.119276 -0.093584 -0.988441 
0.552236 -0.533618 0.348347 0.119276 -0.093584 -0.988441 
0.335545 -0.288025 0.298946 -0.108965 -0.287544 -0.951549 
0.552236 -0.533618 0.348347 -0.108965 -0.287544 -0.951549 
0.311424 -0.506264 0.367657 -0.108965 -0.287544 -0.951549 
0.552236 -0.533618 0.348347 0.058806 0.010053 -0.998219 
0.778205 -0.543010 0.361565 0.058806 0.010053 -0.998219 
0.757703 -0.749773 0.358274 0.058806 0.010053 -0.998219 
0.552236 -0.533618 0.348347 0.123782 0.072209 -0.989679 
0.757703 -0.749773 0.358274 0.123782 0.072209 -0.989679 
0.534917 -0.734112 0.331553 0.123782 0.072209 -0.989679 
1.000000 -0.632758 0.392276 0.137985 0.002078 -0.990432 
0.757703 -0.749773 0.358274 0.137985 0.002078 -0.990432 
0.778205 -0.543010 0.361565 0.137985 0.002078 -0.990432 
1.000000 -0.632758 0.392276 0.070440 -0.162701 -0.984158 
0.778205 -0.543010 0.361565 0.070440 -0.162701 -0.984158 
1.043835 -0.533756 0.379047 0.070440 -0.162701 -0.984158 
0.587217 -0.300558 0.330503 -0.092887 -0.198179 -0.975755 
0.838968 -0.278524 0.302062 -0.092887 -0.198179 -0.975755 
0.778205 -0.543010 0.361565 -0.092887 -0.198179 -0.975755 
0.587217 -0.300558 0.330503 0.054688 -0.084387 -0.994931 
0.778205 -0.543010 0.361565 0.054688 -0.084387 -0.994931 
0.552236 -0.533618 0.348347 0.054688 -0.084387 -0.994931 
0.838968 -0.278524 0.302062 -0.024236 -0.306472 -0.951571 
1.068125 -0.290414 0.300055 -0.024236 -0.306472 -0.951571 
1.043835 -0.533756 0.379047 -0.024236 -0.306472 -0.951571 
0.838968 -0.278524 0.302062 0.071976 -0.234629 -0.969417 
1.043835 -0.533756 0.379047 0.071976 -0.234629 -0.969417 
0.778205 -0.543010 0.361565 0.071976 -0.234629 -0.969417 
0.037760 -0.120571 0.158497 0.080962 -0.757240 -0.648099 
0.325001 -0.140284 0.217413 0.080962 -0.757240 -0.648099 
0.090083 -0.260205 0.328182 0.080962 -0.757240 -0.648099 
0.325001 -0.140284 0.217413 -0.157458 -0.485738 -0.859805 
0.335545 -0.288025 0.298946 -0.157458 -0.485738 -0.859805 
0.090083 -0.260205 0.328182 -0.157458 -0.485738 -0.859805 
0.325001 -0.140284 0.217413 0.110536 -0.474157 -0.873474 
0.594692 -0.134895 0.248616 0.110536 -0.474157 -0.873474 
0.335545 -0.288025 0.298946 0.110536 -0.474157 -0.873474 
0.594692 -0.134895 0.248616 0.089610 -0.444584 -0.891244 
0.587217 -0.300558 0.330503 0.089610 -0.444584 -0.891244 
0.335545 -0.288025 0.298946 0.089610 -0.444584 -0.891244 
0.015935 -0.207174 0.016671 0.013561 -0.854314 0.519581 
0.271468 -0.188725 0.040336 0.013561 -0.854314 0.519581 
0.037760 -0.120571 0.158497 0.013561 -0.854314 0.519581 
0.271468 -0.188725 0.040336 -0.125876 -0.946547 0.296991 
0.325001 -0.140284 0.217413 -0.125876 -0.946547 0.296991 
0.037760 -0.120571 0.158497 -0.125876 -0.946547 0.296991 
0.271468 -0.188725 0.040336 0.039736 -0.966791 0.252462 
0.552548 -0.163864 0.091300 0.039736 -0.966791 0.252462 
0.325001 -0.140284 0.217413 0.039736 -0.966791 0.252462 
0.552548 -0.163864 0.091300 -0.001341 -0.983399 0.181451 
0.594692 -0.134895 0.248616 -0.001341 -0.983399 0.181451 
0.325001 -0.140284 0.217413 -0.001341 -0.983399 0.181451 
0.594692 -0.134895 0.248616 -0.018177 -0.375700 -0.926563 
0.828339 -0.146520 0.248746 -0.018177 -0.375700 -0.926563 
0.838968 -0.278524 0.302062 -0.018177 -0.375700 -0.926563 
0.594692 -0.134895 0.248616 -0.062695 -0.439974 -0.895820 
0.838968 -0.278524 0.302062 -0.062695 -0.439974 -0.895820 
0.587217 -0.300558 0.330503 -0.062695 -0.439974 -0.895820 
0.828339 -0.146520 0.248746 0.004121 -0.374216 -0.927332 
1.031293 -0.134881 0.244951 0.004121 -0.374216 -0.927332 
0.838968 -0.278524 0.302062 0.004121 -0.374216 -0.927332 
1.031293 -0.134881 0.244951 -0.025839 -0.339271 -0.940334 
1.068125 -0.290414 0.300055 -0.025839 -0.339271 -0.940334 
0.838968 -0.278524 0.302062 -0.025839 -0.339271 -0.940334 
0.552548 -0.163864 0.091300 -0.023886 -0.982024 0.187238 
0.797690 -0.165485 0.114071 -0.023886 -0.982024 0.187238 
0.594692 -0.134895 0.248616 -0.023886 -0.982024 0.187238 
0.797690 -0.165485 0.114071 -0.049214 -0.987422 0.150251 
0.828339 -0.146520 0.248746 -0.049214 -0.987422 0.150251 
0.594692 -0.134895 0.248616 -0.049214 -0.987422 0.150251 
0.797690 -0.165485 0.114071 0.044695 -0.990594 0.129326 
1.042209 -0.153027 0.124989 0.044695 -0.990594 0.129326 
0.828339 -0.146520 0.248746 0.044695 -0.990594 0.129326 
1.042209 -0.153027 0.124989 0.059448 -0.986189 0.154590 
1.031293 -0.134881 0.244951 0.059448 -0.986189 0.154590 
0.828339 -0.146520 0.248746 0.059448 -0.986189 0.154590 
-0.955971 -0.263266 0.097970 0.011221 0.021176 0.999713 
-0.743654 -0.278408 0.095907 0.011221 0.021176 0.999713 
-0.749856 -0.109769 0.092405 0.011221 0.021176 0.999713 
-0.955971 -0.263266 0.097970 -0.063950 0.121782 0.990495 
-0.749856 -0.109769 0.092405 -0.063950 0.121782 0.990495 
-0.986036 -0.101441 0.076132 -0.063950 0.121782 0.990495 
-0.743654 -0.278408 0.095907 -0.040202 0.138340 0.989568 
-0.488376 -0.276036 0.105947 -0.040202 0.138340 0.989568 
-0.529937 -0.137790 0.084932 -0.040202 0.138340 0.989568 
-0.743654 -0.278408 0.095907 0.036767 0.022102 0.999079 
-0.529937 -0.137790 0.084932 0.036767 0.022102 0.999079 
-0.749856 -0.109769 0.092405 0.036767 0.022102 0.999079 
-0.975395 -0.422739 0.148121 -0.115542 0.310767 0.943437 
-0.739981 -0.403374 0.170574 -0.115542 0.310767 0.943437 
-0.955971 -0.263266 0.097970 -0.115542 0.310767 0.943437 
-0.739981 -0.403374 0.170574 0.044938 0.513366 0.856992 
-0.743654 -0.278408 0.095907 0.044938 0.513366 0.856992 
-0.955971 -0.263266 0.097970 0.044938 0.513366 0.856992 
-0.739981 -0.403374 0.170574 0.041590 0.513368 0.857160 
-0.489630 -0.392598 0.151972 0.041590 0.513368 0.857160 
-0.743654 -0.278408 0.095907 0.041590 0.513368 0.857160 
-0.489630 -0.392598 0.151972 -0.039958 0.367342 0.929227 
-0.488376 -0.276036 0.105947 -0.039958 0.367342 0.929227 
-0.743654 -0.278408 0.095907 -0.039958 0.367342 0.929227 
-0.488376 -0.276036 0.105947 0.045431 0.207931 0.977088 
-0.243584 -0.294977 0.098596 0.045431 0.207931 0.977088 
-0.267931 -0.145446 0.067906 0.045431 0.207931 0.977088 
-0.488376 -0.276036 0.105947 0.068848 0.170128 0.983014 
-0.267931 -0.145446 0.067906 0.068848 0.170128 0.983014 
-0.529937 -0.137790 0.084932 0.068848 0.170128 0.983014 
-0.243584 -0.294977 0.098596 0.251087 0.150097 0.956256 
0.013959 -0.363266 0.041691 0.251087 0.150097 0.956256 
0.015935 -0.207174 0.016671 0.251087 0.150097 0.956256 
-0.243584 -0.294977 0.098596 0.221157 0.230493 0.947609 
0.015935 -0.207174 0.016671 0.221157 0.230493 0.947609 
-0.267931 -0.145446 0.067906 0.221157 0.230493 0.947609 
-0.489630 -0.392598 0.151972 -0.013844 0.506334 0.862226 
-0.245584 -0.396090 0.157941 -0.013844 0.506334 0.862226 
-0.243584 -0.294977 0.098596 -0.013844 0.506334 0.862226 
-0.489630 -0.392598 0.151972 0.056226 0.366159 0.928852 
-0.243584 -0.294977 0.098596 0.056226 0.366159 0.928852 
-0.488376 -0.276036 0.105947 0.056226 0.366159 0.928852 
-0.245584 -0.396090 0.157941 0.220497 0.691786 0.687615 
0.048422 -0.452806 0.120723 0.220497 0.691786 0.687615 
0.013959 -0.363266 0.041691 0.220497 0.691786 0.687615 
-0.245584 -0.396090 0.157941 0.308330 0.476975 0.823060 
0.013959 -0.363266 0.041691 0.308330 0.476975 0.823060 
-0.243584 -0.294977 0.098596 0.308330 0.476975 0.823060 
-1.004455 -0.590979 0.315115 0.026763 0.701887 0.711785 
-0.737264 -0.558070 0.272617 0.026763 0.701887 0.711785 
-0.975395 -0.422739 0.148121 0.026763 0.701887 0.711785 
-0.737264 -0.558070 0.272617 -0.123914 0.544873 0.829312 
-0.739981 -0.403374 0.170574 -0.123914 0.544873 0.829312 
-0.975395 -0.422739 0.148121 -0.123914 0.544873 0.829312 
-0.737264 -0.558070 0.272617 0.130321 0.547532 0.826575 
-0.492950 -0.552229 0.230229 0.130321 0.547532 0.826575 
-0.739981 -0.403374 0.170574 0.130321 0.547532 0.826575 
-0.492950 -0.552229 0.230229 0.047777 0.438880 0.897275 
-0.489630 -0.392598 0.151972 0.047777 0.438880 0.897275 
-0.739981 -0.403374 0.170574 0.047777 0.438880 0.897275 
-1.000000 -0.676175 0.601175 0.019325 0.958302 0.285105 
-0.714589 -0.668591 0.556337 0.019325 0.958302 0.285105 
-1.004455 -0.590979 0.315115 0.019325 0.958302 0.285105 
-0.714589 -0.668591 0.556337 -0.056138 0.928804 0.366294 
-0.737264 -0.558070 0.272617 -0.056138 0.928804 0.366294 
-1.004455 -0.590979 0.315115 -0.056138 0.928804 0.366294 
-0.714589 -0.668591 0.556337 0.132517 0.927118 0.350560 
-0.480789 -0.682595 0.504993 0.132517 0.927118 0.350560 
-0.737264 -0.558070 0.272617 0.132517 0.927118 0.350560 
-0.480789 -0.682595 0.504993 0.052351 0.903122 0.426181 
-0.492950 -0.552229 0.230229 0.052351 0.903122 0.426181 
-0.737264 -0.558070 0.272617 0.052351 0.903122 0.426181 
-0.492950 -0.552229 0.230229 -0.147612 0.598427 0.787462 
-0.243742 -0.527436 0.258102 -0.147612 0.598427 0.787462 
-0.245584 -0.396090 0.157941 -0.147612 0.598427 0.787462 
-0.492950 -0.552229 0.230229 -0.015654 0.440392 0.897669 
-0.245584 -0.396090 0.157941 -0.015654 0.440392 0.897669 
-0.489630 -0.392598 0.151972 -0.015654 0.440392 0.897669 
-0.243742 -0.527436 0.258102 0.015601 0.864315 0.502709 
0.027097 -0.544152 0.278438 0.015601 0.864315 0.502709 
0.048422 -0.452806 0.120723 0.015601 0.864315 0.502709 
-0.243742 -0.527436 0.258102 0.212832 0.594372 0.775515 
0.048422 -0.452806 0.120723 0.212832 0.594372 0.775515 
-0.245584 -0.396090 0.157941 0.212832 0.594372 0.775515 
-0.480789 -0.682595 0.504993 -0.096124 0.881740 0.461839 
-0.205317 -0.660875 0.520860 -0.096124 0.881740 0.461839 
-0.243742 -0.527436 0.258102 -0.096124 0.881740 0.461839 
-0.480789 -0.682595 0.504993 -0.136850 0.892606 0.429566 
-0.243742 -0.527436 0.258102 -0.136850 0.892606 0.429566 
-0.492950 -0.552229 0.230229 -0.136850 0.892606 0.429566 
-0.205317 -0.660875 0.520860 -0.189774 0.943325 0.272256 
0.042557 -0.607985 0.510384 -0.189774 0.943325 0.272256 
0.027097 -0.544152 0.278438 -0.189774 0.943325 0.272256 
-0.205317 -0.660875 0.520860 0.021293 0.892665 0.450217 
0.027097 -0.544152 0.278438 0.021293 0.892665 0.450217 
-0.243742 -0.527436 0.258102 0.021293 0.892665 0.450217 
0.013959 -0.363266 0.041691 -0.082262 0.129034 0.988222 
0.279801 -0.374907 0.065340 -0.082262 0.129034 0.988222 
0.271468 -0.188725 0.040336 -0.082262 0.129034 0.988222 
0.013959 -0.363266 0.041691 -0.102402 0.158700 0.982002 
0.271468 -0.188725 0.040336 -0.102402 0.158700 0.982002 
0.015935 -0.207174 0.016671 -0.102402 0.158700 0.982002 
0.279801 -0.374907 0.065340 -0.128636 0.126340 0.983611 
0.552377 -0.341566 0.096705 -0.128636 0.126340 0.983611 
0.271468 -0.188725 0.040336 -0.128636 0.126340 0.983611 
0.552377 -0.341566 0.096705 -0.180900 0.030074 0.983042 
0.552548 -0.163864 0.091300 -0.180900 0.030074 0.983042 
0.271468 -0.188725 0.040336 -0.180900 0.030074 0.983042 
0.048422 -0.452806 0.120723 -0.035396 0.646777 0.761858 
0.301204 -0.482428 0.157614 -0.035396 0.646777 0.761858 
0.279801 -0.374907 0.065340 -0.035396 0.646777 0.761858 
0.048422 -0.452806 0.120723 -0.038713 0.652831 0.756514 
0.279801 -0.374907 0.065340 -0.038713 0.652831 0.756514 
0.013959 -0.363266 0.041691 -0.038713 0.652831 0.756514 
0.301204 -0.482428 0.157614 -0.068307 0.641866 0.763769 
0.557884 -0.466474 0.167162 -0.068307 0.641866 0.763769 
0.279801 -0.374907 0.065340 -0.068307 0.641866 0.763769 
0.557884 -0.466474 0.167162 -0.157998 0.479838 0.863014 
0.552377 -0.341566 0.096705 -0.157998 0.479838 0.863014 
0.279801 -0.374907 0.065340 -0.157998 0.479838 0.863014 
0.552377 -0.341566 0.096705 0.027014 0.030365 0.999174 
0.781749 -0.346572 0.090656 0.027014 0.030365 0.999174 
0.552548 -0.163864 0.091300 0.027014 0.030365 0.999174 
0.781749 -0.346572 0.090656 -0.092611 -0.119663 0.988486 
0.797690 -0.165485 0.114071 -0.092611 -0.119663 0.988486 
0.552548 -0.163864 0.091300 -0.092611 -0.119663 0.988486 
0.781749 -0.346572 0.090656 -0.009461 -0.127412 0.991805 
1.026155 -0.334539 0.094533 -0.009461 -0.127412 0.991805 
0.797690 -0.165485 0.114071 -0.009461 -0.127412 0.991805 
1.026155 -0.334539 0.094533 -0.035760 -0.162293 0.986094 
1.042209 -0.153027 0.124989 -0.035760 -0.162293 0.986094 
0.797690 -0.165485 0.114071 -0.035760 -0.162293 0.986094 
0.557884 -0.466474 0.167162 0.010695 0.491631 0.870738 
0.777507 -0.444368 0.151983 0.010695 0.491631 0.870738 
0.552377 -0.341566 0.096705 0.010695 0.491631 0.870738 
0.777507 -0.444368 0.151983 0.033914 0.529914 0.847373 
0.781749 -0.346572 0.090656 0.033914 0.529914 0.847373 
0.552377 -0.341566 0.096705 0.033914 0.529914 0.847373 
0.777507 -0.444368 0.151983 0.034564 0.400672 0.915569 
1.039910 -0.454782 0.146635 0.034564 0.400672 0.915569 
1.026155 -0.334539 0.094533 0.034564 0.400672 0.915569 
0.777507 -0.444368 0.151983 -0.039615 0.532092 0.845759 
1.026155 -0.334539 0.094533 -0.039615 0.532092 0.845759 
0.781749 -0.346572 0.090656 -0.039615 0.532092 0.845759 
0.027097 -0.544152 0.278438 -0.078919 0.948852 0.305699 
0.288677 -0.530465 0.303483 -0.078919 0.948852 0.305699 
0.301204 -0.482428 0.157614 -0.078919 0.948852 0.305699 
0.027097 -0.544152 0.278438 0.027648 0.863380 0.503796 
0.301204 -0.482428 0.157614 0.027648 0.863380 0.503796 
0.048422 -0.452806 0.120723 0.027648 0.863380 0.503796 
0.288677 -0.530465 0.303483 0.138464 0.937077 0.320490 
0.513576 -0.557364 0.284966 0.138464 0.937077 0.320490 
0.301204 -0.482428 0.157614 0.138464 0.937077 0.320490 
0.513576 -0.557364 0.284966 -0.071914 0.802591 0.592180 
0.557884 -0.466474 0.167162 -0.071914 0.802591 0.592180 
0.301204 -0.482428 0.157614 -0.071914 0.802591 0.592180 
0.042557 -0.607985 0.510384 0.157377 0.848567 0.505141 
0.258790 -0.646469 0.507665 0.157377 0.848567 0.505141 
0.288677 -0.530465 0.303483 0.157377 0.848567 0.505141 
0.042557 -0.607985 0.510384 -0.076018 0.960057 0.269279 
0.288677 -0.530465 0.303483 -0.076018 0.960057 0.269279 
0.027097 -0.544152 0.278438 -0.076018 0.960057 0.269279 
0.258790 -0.646469 0.507665 0.117008 0.856046 0.503481 
0.486476 -0.682607 0.516195 0.117008 0.856046 0.503481 
0.288677 -0.530465 0.303483 0.117008 0.856046 0.503481 
0.486476 -0.682607 0.516195 0.143105 0.863130 0.484281 
0.513576 -0.557364 0.284966 0.143105 0.863130 0.484281 
0.288677 -0.530465 0.303483 0.143105 0.863130 0.484281 
0.513576 -0.557364 0.284966 -0.045810 0.799169 0.599358 
0.754525 -0.540221 0.280524 -0.045810 0.799169 0.599358 
0.557884 -0.466474 0.167162 -0.045810 0.799169 0.599358 
0.754525 -0.540221 0.280524 -0.040003 0.804425 0.592705 
0.777507 -0.444368 0.151983 -0.040003 0.804425 0.592705 
0.557884 -0.466474 0.167162 -0.040003 0.804425 0.592705 
0.754525 -0.540221 0.280524 0.020478 0.822446 0.568475 
1.042081 -0.568055 0.310435 0.020478 0.822446 0.568475 
1.039910 -0.454782 0.146635 0.020478 0.822446 0.568475 
0.754525 -0.540221 0.280524 0.043910 0.797101 0.602247 
1.039910 -0.454782 0.146635 0.043910 0.797101 0.602247 
0.777507 -0.444368 0.151983 0.043910 0.797101 0.602247 
0.486476 -0.682607 0.516195 -0.038039 0.880524 0.472472 
0.738081 -0.700440 0.569686 -0.038039 0.880524 0.472472 
0.513576 -0.557364 0.284966 -0.038039 0.880524 0.472472 
0.738081 -0.700440 0.569686 -0.053356 0.874741 0.481644 
0.754525 -0.540221 0.280524 -0.053356 0.874741 0.481644 
0.513576 -0.557364 0.284966 -0.053356 0.874741 0.481644 
0.738081 -0.700440 0.569686 -0.137563 0.869684 0.474053 
1.000000 -0.676175 0.601175 -0.137563 0.869684 0.474053 
0.754525 -0.540221 0.280524 -0.137563 0.869684 0.474053 
1.000000 -0.676175 0.601175 0.053439 0.933397 0.354845 
1.042081 -0.568055 0.310435 0.053439 0.933397 0.354845 
0.754525 -0.540221 0.280524 0.053439 0.933397 0.354845 
3 0 1 2 
3 3 4 5 
3 6 7 8 
3 9 10 11 
3 12 13 14 
3 15 16 17 
3 18 19 20 
3 21 22 23 
3 24 25 26 
3 27 28 29 
3 30 31 32 
3 33 34 35 
3 36 37 38 
3 39 40 41 
3 42 43 44 
3 45 46 47 
3 48 49 50 
3 51 52 53 
3 54 55 56 
3 57 58 59 
3 60 61 62 
3 63 64 65 
3 66 67 68 
3 69 70 71 
3 72 73 74 
3 75 76 77 
3 78 79 80 
3 81 82 83 
3 84 85 86 
3 87 88 89 
3 90 91 92 
3 93 94 95 
3 96 97 98 
3 99 100 101 
3 102 103 104 
3 105 106 107 
3 108 109 110 
3 111 112 113 
3 114 115 116 
3 117 118 119 
3 120 121 122 
3 123 124 125 
3 126 127 128 
3 129 130 131 
3 132 133 134 
3 135 136 137 
3 138 139 140 
3 141 142 143 
3 144 145 146 
3 147 148 149 
3 150 151 152 
3 153 154 155 
3 156 157 158 
3 159 160 161 
3 162 163 164 
3 165 166 167 
3 168 169 170 
3 171 172 173 
3 174 175 176 
3 177 178 179 
3 180 181 182 
3 183 184 185 
3 186 187 188 
3 189 190 191 
3 192 193 194 
3 195 196 197 
3 198 199 200 
3 201 202 203 
3 204 205 206 
3 207 208 209 
3 210 211 212 
3 213 214 215 
3 216 217 218 
3 219 220 221 
3 222 223 224 
3 225 226 227 
3 228 229 230 
3 231 232 233 
3 234 235 236 
3 237 238 239 
3 240 241 242 
3 243 244 245 
3 246 247 248 
3 249 250 251 
3 252 253 254 
3 255 256 257 
3 258 259 260 
3 261 262 263 
3 264 265 266 
3 267 268 269 
3 270 271 272 
3 273 274 275 
3 276 277 278 
3 279 280 281 
3 282 283 284 
3 285 286 287 
3 288 289 290 
3 291 292 293 
3 294 295 296 
3 297 298 299 
3 300 301 302 
3 303 304 305 
3 306 307 308 
3 309 310 311 
3 312 313 314 
3 315 316 317 
3 318 319 320 
3 321 322 323 
3 324 325 326 
3 327 328 329 
3 330 331 332 
3 333 334 335 
3 336 337 338 
3 339 340 341 
3 342 343 344 
3 345 346 347 
3 348 349 350 
3 351 352 353 
3 354 355 356 
3 357 358 359 
3 360 361 362 
3 363 364 365 
3 366 367 368 
3 369 370 371 
3 372 373 374 
3 375 376 377 
3 378 379 380 
3 381 382 383 
